<svg xmlns="http://www.w3.org/2000/svg" width="1024" height="1024" viewBox="0 0 1024 1024" version="1.1"><path d="M 495.500 141.073 C 479.012 143.840, 465.680 154.086, 458.208 169.734 L 454.500 177.500 454.232 312.963 L 453.965 448.426 457.232 445.329 C 459.030 443.625, 464.438 439.457, 469.250 436.067 L 478 429.902 478 308.133 C 478 203.921, 478.212 185.649, 479.470 181.414 C 481.206 175.566, 486.407 170.055, 493 167.077 C 497.472 165.057, 498.644 165.044, 679 165.066 C 828.055 165.084, 861.171 165.327, 864.252 166.427 C 870.006 168.480, 874.257 172.229, 877.526 178.130 L 880.500 183.500 880.500 363.500 L 880.500 543.500 877.416 549 C 874.064 554.977, 867.515 560.207, 861.177 561.967 C 858.798 562.628, 825.093 562.991, 765.693 562.994 L 673.887 563 675.437 560.250 C 676.289 558.737, 677.428 556.263, 677.968 554.750 C 678.864 552.242, 679.396 552, 684.007 552 C 692.609 552, 698.628 548.605, 702.106 541.790 C 703.668 538.730, 704 535.871, 704 525.483 C 704 518.554, 703.498 510.890, 702.883 508.451 C 701.551 503.160, 695.353 495.731, 689.987 492.993 C 684.596 490.243, 672.280 487.293, 659.247 485.630 L 647.995 484.193 641.747 478.851 C 638.311 475.912, 630.775 469.408, 625 464.397 C 604.383 446.506, 592.584 439.290, 579.371 436.490 C 569.290 434.355, 515.789 434.383, 507.552 436.528 C 496.109 439.509, 488.456 444.501, 475.434 457.476 C 459.580 473.274, 445.123 489.660, 443.311 493.888 C 442.158 496.575, 441.925 501.535, 442.179 517.888 C 442.486 537.600, 442.606 538.686, 444.936 542.753 C 447.850 547.841, 455.241 551.989, 461.446 552.020 C 465.463 552.039, 465.529 552.101, 468.677 558.770 C 474.369 570.827, 486.383 581.170, 499.486 585.293 L 506.500 587.500 684.500 587.500 L 862.500 587.500 869.620 585.261 C 886.950 579.810, 900.666 564.580, 903.979 547.109 C 904.650 543.575, 905 480.570, 905 363.574 C 905 167.747, 905.404 180.686, 898.887 167.777 C 892.089 154.310, 876.464 143.129, 861.500 141.024 C 852.846 139.807, 502.766 139.854, 495.500 141.073 M 677.750 184.782 L 666 185.063 666 208.532 L 666 232 678.250 232.001 L 690.500 232.003 690.238 213.751 C 690.093 203.713, 689.868 193.025, 689.738 190 L 689.500 184.500 677.750 184.782 M 588.224 212.777 L 579.948 221.097 591.224 233.231 C 597.426 239.905, 604.750 247.759, 607.500 250.684 L 612.500 256.004 620.789 247.834 L 629.077 239.664 625.710 236.082 C 623.858 234.112, 617.472 227.100, 611.518 220.500 C 605.565 213.900, 599.750 207.590, 598.597 206.479 L 596.500 204.458 588.224 212.777 M 746 219.140 C 739.125 226.848, 732.411 234.526, 731.080 236.202 L 728.660 239.250 737.080 247.155 L 745.500 255.060 750.006 250.280 C 762.534 236.992, 775.531 222.783, 775.775 222.108 C 776.146 221.085, 760.768 204.977, 759.500 205.060 C 758.950 205.096, 752.875 211.432, 746 219.140 M 333.300 415.807 C 326.340 418.286, 320.454 422.495, 315.902 428.248 C 311.845 433.375, 308 442.408, 308 446.810 C 308 448.913, 307.187 449.983, 304.480 451.441 C 291.496 458.433, 283.476 475.361, 285.783 490.906 C 287.786 504.396, 296.485 516.540, 307.983 521.892 C 312.749 524.111, 315.167 524.511, 325.750 524.833 L 338 525.206 338.165 522.353 C 338.256 520.784, 338.385 511.009, 338.451 500.632 L 338.573 481.764 341.342 479.382 C 345.317 475.963, 350.329 476.176, 354.077 479.923 L 357 482.846 357 504.024 L 357 525.201 369.750 524.850 C 381.358 524.531, 383.020 524.245, 388.301 521.652 C 395.988 517.877, 403.088 510.598, 407.173 502.303 C 410.272 496.011, 410.500 494.860, 410.500 485.524 C 410.500 476.791, 410.164 474.792, 407.890 470 C 404.351 462.543, 398.186 455.866, 391.707 452.474 C 386.539 449.768, 386.285 449.441, 385.171 444.079 C 384.533 441.011, 383.075 436.614, 381.931 434.309 C 378.918 428.242, 370.944 420.599, 364.280 417.392 C 356.583 413.687, 341.430 412.912, 333.300 415.807 M 518.650 459.049 C 508.161 460.809, 498.285 468.171, 490.576 479.977 C 488.609 482.990, 487 485.802, 487 486.227 C 487 486.652, 498.475 487, 512.500 487 L 538 487 538 472.500 L 538 458 530.750 458.118 C 526.763 458.182, 521.317 458.601, 518.650 459.049 M 560 473 L 560 487 587.212 487 L 614.425 487 609.462 481.933 C 602.574 474.899, 592.308 466.655, 587.281 464.119 C 581.761 461.335, 571.827 459.033, 565.250 459.015 L 560 459 560 473 M 499.358 523.994 C 497.630 524.384, 494.641 525.677, 492.715 526.867 C 483.671 532.457, 483.788 547.461, 492.925 553.700 C 504.224 561.415, 520 553.122, 520 539.466 C 520 529.601, 509.472 521.709, 499.358 523.994 M 639.275 523.974 C 634.784 525.037, 631.244 527.551, 628.955 531.304 C 624.676 538.319, 625.277 545.087, 630.712 551.103 C 641.032 562.527, 660.231 555.420, 660.231 540.176 C 660.231 528.814, 650.525 521.310, 639.275 523.974 M 538.693 556.750 C 537.756 559.362, 536.992 561.837, 536.995 562.250 C 536.998 562.663, 553.875 563, 574.500 563 C 595.125 563, 612 562.860, 612 562.688 C 612 562.516, 611.100 560.513, 610 558.236 C 608.900 555.959, 608 553.625, 608 553.048 C 608 552.338, 597.104 552, 574.198 552 L 540.395 552 538.693 556.750" stroke="none" fill="#dbaa2c" fill-rule="evenodd"/><path d="M 130 361 L 130 582 173.500 582 L 217 582 217 485 L 217 388 259.250 387.982 C 304.689 387.962, 313.839 387.277, 331.534 382.567 C 366.759 373.191, 393.688 350.445, 407.491 318.407 C 424.364 279.245, 420.208 226.158, 397.609 192.164 C 381.213 167.501, 355.182 150.774, 322.610 143.973 C 305.981 140.500, 292.297 140.017, 210.250 140.009 L 130 140 130 361 M 217 265 L 217 320 252.053 320 C 280.576 320, 288.446 319.701, 294.303 318.395 C 314.699 313.846, 328.629 300.924, 333.659 281.887 C 335.830 273.668, 335.797 256.945, 333.590 247.603 C 329.666 230.991, 319.093 219.142, 303.692 214.096 C 293.740 210.835, 282.546 210, 248.776 210 L 217 210 217 265 M 670.500 251.310 C 666.650 253.686, 644.825 267.490, 622 281.984 C 599.175 296.478, 572.175 313.587, 562 320.004 C 551.825 326.421, 540.237 333.767, 536.250 336.329 L 529 340.987 529 355.993 L 529 371 540 371 L 551 371 551 392.500 L 551 414 566.383 414 L 581.765 414 582.463 406.548 C 583.325 397.353, 586.105 391.580, 591.707 387.356 C 601.880 379.686, 617.349 381.546, 625.075 391.368 C 629.211 396.626, 629.998 401.950, 630.033 424.909 L 630.067 446.500 641.960 456.163 C 650.801 463.347, 654 465.442, 654.426 464.331 C 654.742 463.509, 655.003 449.261, 655.006 432.668 C 655.009 414.486, 655.433 400.982, 656.072 398.679 C 657.355 394.058, 663.058 387.511, 667.932 385.063 C 679.465 379.269, 693.616 383.675, 700 395.047 L 702.500 399.500 703 440.500 L 703.500 481.500 707.782 486 C 718.743 497.519, 722.097 505.985, 722.639 523.500 L 723.041 536.500 775.770 536.759 L 828.500 537.018 828.299 529.759 C 828.188 525.767, 828.075 519.688, 828.049 516.250 L 828 510 817.250 510 L 806.500 510 806.763 440.500 L 807.027 371 817.513 371 L 828 371 827.951 355.750 L 827.902 340.500 818.201 334.558 C 812.866 331.290, 788.700 316.044, 764.500 300.677 C 698.505 258.771, 680.910 247.785, 679.122 247.367 C 678.230 247.159, 674.350 248.933, 670.500 251.310 M 663.500 296.824 C 655.800 301.668, 638.025 312.764, 624 321.481 C 609.975 330.199, 596.925 338.388, 595 339.680 L 591.500 342.029 620.435 341.764 L 649.370 341.500 650.566 336.811 C 655.870 316.013, 682.183 307.847, 698.270 322.007 C 703.039 326.204, 708 334.730, 708 338.728 C 708 340.012, 708.569 341.281, 709.264 341.548 C 709.959 341.815, 722.887 341.913, 737.993 341.767 L 765.457 341.500 755.979 335.381 C 729.279 318.144, 681.252 288.593, 679.500 288.324 C 678.323 288.142, 671.737 291.642, 663.500 296.824 M 743.183 383.902 C 740.258 384.912, 736.282 387.260, 734.347 389.119 C 727.132 396.053, 727.532 392.405, 727.210 454.250 L 726.921 510 751.008 510 L 775.094 510 774.797 454.750 C 774.503 400.088, 774.477 399.456, 772.309 395.405 C 769.261 389.709, 763.954 385.361, 757.833 383.543 C 751.290 381.600, 749.737 381.638, 743.183 383.902 M 341.342 479.382 L 338.573 481.764 338.451 500.632 C 338.385 511.009, 338.256 529.288, 338.165 541.250 L 338 563 315.573 563 L 293.145 563 291.037 565.680 C 289.194 568.023, 288.965 569.466, 289.215 577.185 C 289.372 582.039, 289.837 586.009, 290.250 586.006 C 290.663 586.002, 321.375 586, 358.500 586 L 426 586 425.968 577.250 C 425.949 571.954, 425.455 567.874, 424.718 566.913 C 421.899 563.241, 419.682 563, 388.727 563 L 358.322 563 357.661 534.337 C 357.297 518.573, 357 500.538, 357 494.260 C 357 482.978, 356.966 482.812, 354.077 479.923 C 350.329 476.176, 345.317 475.963, 341.342 479.382 M 136 703 L 136 782 189.333 782 C 218.667 782, 242.854 781.814, 243.083 781.586 C 243.313 781.359, 243.364 774.609, 243.199 766.586 L 242.897 752 206.449 752 L 170 752 170 733.988 L 170 715.976 200.250 716.035 C 216.887 716.068, 231.738 716.073, 233.250 716.047 L 236 716 236 702 L 236 688 203 688 L 170 688 170 671 L 170 654 206 654 L 242 654 242 639 L 242 624 189 624 L 136 624 136 703 M 266 638.988 L 266 653.976 303.927 654.238 L 341.855 654.500 329.058 671.616 C 322.020 681.030, 304.728 704.329, 290.631 723.391 L 265 758.050 265 770.025 L 265 782 326.500 782 L 388 782 388.119 778.750 C 388.234 775.591, 388.214 766.410, 388.071 756.750 L 388 752 348.968 752 L 309.937 752 319.264 739.750 C 324.393 733.013, 336.863 716.250, 346.974 702.500 C 357.086 688.750, 370.228 670.884, 376.179 662.799 L 387 648.097 387 636.049 L 387 624 326.500 624 L 266 624 266 638.988 M 412 702.921 L 412 782 429 782 L 446 782 446 755.500 L 446 729 462.250 728.987 C 482.134 728.971, 493.425 726.940, 504.758 721.340 C 514.161 716.694, 523.521 707.838, 527.331 699.983 C 530.186 694.096, 532.965 682.759, 532.965 677 C 532.965 671.241, 530.186 659.904, 527.331 654.017 C 521.516 642.029, 506.947 631.552, 489.500 626.812 C 482.175 624.822, 478.568 624.605, 446.750 624.240 L 412 623.842 412 702.921 M 782 703 L 782 782 798 782 L 814 782 814 767.020 L 814 752.039 821.070 744.270 C 824.958 739.996, 828.556 736.351, 829.066 736.168 C 829.575 735.985, 833.482 741.271, 837.746 747.913 C 842.011 754.556, 848.662 764.830, 852.527 770.745 L 859.554 781.500 878.355 781.772 C 893.181 781.987, 897.086 781.776, 896.827 780.772 C 896.647 780.073, 889.792 769.375, 881.595 757 C 873.397 744.625, 863.343 729.380, 859.252 723.121 L 851.813 711.743 857.704 705.621 C 876.397 686.200, 895.890 665.223, 895.557 664.888 C 895.346 664.675, 886.366 664.725, 875.603 665 L 856.035 665.500 840.906 682 C 832.586 691.075, 823.128 701.549, 819.889 705.276 L 814 712.051 814 668.026 L 814 624 798 624 L 782 624 782 703 M 446.725 652.608 C 446.326 653.007, 446 664.058, 446 677.167 L 446 701 456.750 700.992 C 478.528 700.977, 488.332 697.520, 493.211 688.136 C 496.738 681.352, 497.083 672.043, 494.029 666.057 C 491.402 660.907, 485.623 656.282, 479.500 654.430 C 474.189 652.824, 447.967 651.366, 446.725 652.608 M 584.072 661.482 C 568.927 664.934, 556.752 673.569, 551.079 684.880 C 546.269 694.472, 546.271 694.727, 551.167 696.045 C 555.760 697.282, 567.844 703.082, 572.124 706.104 L 574.748 707.957 576.849 702.193 C 580.675 691.702, 586.482 688.058, 599.434 688.022 C 613.202 687.984, 620.831 693.917, 621.783 705.403 L 622.222 710.685 603.861 711.283 C 574.876 712.228, 563.363 715.465, 553.327 725.493 C 545.588 733.226, 543.532 739.072, 544.212 751.409 C 544.752 761.199, 547.633 767.564, 554.311 773.719 C 559.910 778.880, 565.149 781.587, 573.219 783.489 C 589.328 787.287, 604.838 783.499, 618.395 772.456 C 621.404 770.005, 624.049 768, 624.274 768 C 624.499 768, 625.210 769.758, 625.854 771.907 C 628.396 780.392, 639.094 785.724, 651.409 784.645 C 655.309 784.303, 660.202 783.543, 662.282 782.956 L 666.064 781.888 665.782 770.694 L 665.500 759.500 661.701 759.187 C 658.717 758.941, 657.698 758.337, 656.951 756.372 C 656.428 754.996, 655.997 743.212, 655.992 730.185 C 655.988 717.158, 655.526 703.575, 654.965 700 C 652.170 682.188, 639.276 668.383, 620 662.565 C 612.190 660.207, 592.294 659.607, 584.072 661.482 M 742.624 663.637 C 733.484 666.443, 726.371 672.340, 720.887 681.655 L 718.034 686.500 718.017 675.750 L 718 665 701 665 L 684 665 684 723.524 L 684 782.048 700.750 781.774 L 717.500 781.500 718.062 751 C 718.415 731.801, 719.059 719.190, 719.799 716.965 C 724.586 702.577, 737.701 694.005, 752.948 695.299 C 756.552 695.605, 760.288 696.161, 761.250 696.535 C 762.873 697.165, 763 696.019, 763 680.690 L 763 664.166 757.951 663.083 C 751.469 661.693, 748.619 661.796, 742.624 663.637 M 592.686 733.094 C 579.425 735.033, 572.748 743.810, 577.517 753.033 C 581.961 761.627, 599.635 761.842, 611.079 753.442 C 616.353 749.571, 622 739.952, 622 734.840 L 622 732 610.250 732.122 C 603.788 732.189, 595.884 732.626, 592.686 733.094 M 548.500 815.386 C 527.281 820.546, 515.729 841.182, 521.550 863.530 C 525.732 879.586, 538.595 889.868, 555.662 890.797 C 570.231 891.590, 581.668 885.784, 588.750 873.997 C 593.553 866.003, 593.335 865.511, 584.308 863.967 C 578.676 863.004, 576.516 862.953, 576.241 863.778 C 575.423 866.231, 571.352 871.426, 568.718 873.377 C 564.842 876.249, 553.618 876.888, 549.001 874.500 C 541.541 870.643, 537 862.116, 537 851.968 C 537 836.627, 549.319 826.321, 563.196 830.051 C 567.672 831.254, 575 837.767, 575 840.542 C 575 841.344, 575.474 842, 576.053 842 C 577.389 842, 591.387 838.864, 591.834 838.465 C 592.631 837.752, 588.004 829.075, 585.007 825.661 C 580.607 820.650, 574.818 817.404, 566.986 815.558 C 559.372 813.764, 555.326 813.726, 548.500 815.386 M 640.045 815.092 C 620.009 819.020, 606.751 839.772, 610.993 860.568 C 614.567 878.092, 627.460 889.688, 644.591 890.788 C 660.854 891.831, 673.287 885.140, 680.153 871.649 C 681.791 868.431, 682.989 865.677, 682.815 865.530 C 682.204 865.011, 666.835 861.832, 666.542 862.164 C 666.379 862.349, 665.291 864.393, 664.125 866.707 C 657.613 879.621, 636.458 879.105, 630.305 865.881 C 626.112 856.869, 626.552 844.928, 631.338 837.827 C 635.616 831.478, 645.417 827.958, 653.075 830.020 C 657.835 831.302, 663.291 835.874, 665.009 840.021 C 666.022 842.467, 666.672 842.921, 668.382 842.378 C 669.547 842.008, 672.883 841.151, 675.796 840.473 C 678.709 839.795, 681.334 838.999, 681.630 838.704 C 681.925 838.408, 681.207 835.991, 680.034 833.333 C 673.825 819.264, 657.275 811.715, 640.045 815.092 M 348.250 816.807 L 344 817.115 344.006 842.307 C 344.009 856.368, 344.462 869.125, 345.033 871.177 C 346.942 878.051, 351.996 884.198, 358.434 887.478 C 363.931 890.277, 365.148 890.500, 374.934 890.495 C 386.887 890.489, 390.883 889.050, 397.601 882.333 C 404.975 874.958, 405.440 872.749, 405.827 843.250 L 406.172 817 399.668 817 C 396.090 817, 392.480 816.738, 391.645 816.417 C 390.316 815.907, 390.086 819.005, 389.806 841.167 C 389.451 869.237, 389.200 870.477, 383.113 874.239 C 378.771 876.923, 370.356 877.119, 366.550 874.625 C 360.763 870.833, 360.542 869.741, 360 842.178 L 359.500 816.761 356 816.631 C 354.075 816.559, 350.587 816.638, 348.250 816.807 M 484.750 816.737 L 481 817.121 480.968 839.810 C 480.940 860.096, 480.779 862.288, 479.454 860.500 C 478.639 859.400, 471.116 849.177, 462.736 837.783 L 447.500 817.066 440.250 817.033 L 433 817 433 853 L 433 889 440.481 889 L 447.962 889 448.231 866.487 L 448.500 843.973 465 866.427 L 481.500 888.880 488.750 888.940 L 496 889 496 852.664 L 496 816.328 492.250 816.341 C 490.188 816.348, 486.813 816.526, 484.750 816.737" stroke="none" fill="#075a2f" fill-rule="evenodd"/></svg>